<?xml version="1.0" encoding="UTF-8" standalone="no"?>
<!-- Created with Inkscape (http://www.inkscape.org/) -->

<svg
   xmlns:dc="http://purl.org/dc/elements/1.1/"
   xmlns:cc="http://creativecommons.org/ns#"
   xmlns:rdf="http://www.w3.org/1999/02/22-rdf-syntax-ns#"
   xmlns:svg="http://www.w3.org/2000/svg"
   xmlns="http://www.w3.org/2000/svg"
   xmlns:xlink="http://www.w3.org/1999/xlink"
   xmlns:sodipodi="http://sodipodi.sourceforge.net/DTD/sodipodi-0.dtd"
   xmlns:inkscape="http://www.inkscape.org/namespaces/inkscape"
   width="482.85907mm"
   height="173.31461mm"
   viewBox="0 0 482.85909 173.3146"
   version="1.1"
   id="svg8"
   inkscape:version="0.92.3 (2405546, 2018-03-11)"
   sodipodi:docname="Lazada (2012).svg">
  <defs
     id="defs2">
    <linearGradient
       inkscape:collect="always"
       id="linearGradient961">
      <stop
         style="stop-color:#dd1f77;stop-opacity:1;"
         offset="0"
         id="stop957" />
      <stop
         style="stop-color:#ffd5f6;stop-opacity:1"
         offset="1"
         id="stop959" />
    </linearGradient>
    <linearGradient
       inkscape:collect="always"
       id="linearGradient953">
      <stop
         style="stop-color:#6fc4ea;stop-opacity:1;"
         offset="0"
         id="stop949" />
      <stop
         style="stop-color:#bce4f5;stop-opacity:1"
         offset="1"
         id="stop951" />
    </linearGradient>
    <linearGradient
       id="linearGradient935"
       inkscape:collect="always">
      <stop
         id="stop931"
         offset="0"
         style="stop-color:#f8ad1b;stop-opacity:1;" />
      <stop
         id="stop933"
         offset="1"
         style="stop-color:#fec80d;stop-opacity:1" />
    </linearGradient>
    <linearGradient
       inkscape:collect="always"
       id="linearGradient921">
      <stop
         style="stop-color:#4eb745;stop-opacity:1;"
         offset="0"
         id="stop917" />
      <stop
         style="stop-color:#c8db30;stop-opacity:1"
         offset="1"
         id="stop919" />
    </linearGradient>
    <linearGradient
       inkscape:collect="always"
       id="linearGradient913">
      <stop
         style="stop-color:#f8ad1b;stop-opacity:1;"
         offset="0"
         id="stop909" />
      <stop
         style="stop-color:#fec70e;stop-opacity:1"
         offset="1"
         id="stop911" />
    </linearGradient>
    <linearGradient
       inkscape:collect="always"
       id="linearGradient905">
      <stop
         style="stop-color:#f6a51f;stop-opacity:1;"
         offset="0"
         id="stop901" />
      <stop
         style="stop-color:#ffd42a;stop-opacity:1"
         offset="1"
         id="stop903" />
    </linearGradient>
    <linearGradient
       inkscape:collect="always"
       xlink:href="#linearGradient905"
       id="linearGradient907"
       x1="-255.75984"
       y1="-233.08481"
       x2="86.394669"
       y2="-177.40373"
       gradientUnits="userSpaceOnUse"
       gradientTransform="matrix(0.42357423,0,0,0.42357423,-295.80831,-17.824806)" />
    <linearGradient
       inkscape:collect="always"
       xlink:href="#linearGradient913"
       id="linearGradient915"
       x1="37.582241"
       y1="-86.142944"
       x2="87.99855"
       y2="-86.142944"
       gradientUnits="userSpaceOnUse"
       gradientTransform="matrix(0.42357423,0,0,0.42357423,-295.80831,-17.824806)" />
    <linearGradient
       inkscape:collect="always"
       xlink:href="#linearGradient921"
       id="linearGradient923"
       x1="-10.753736"
       y1="-328.9754"
       x2="-35.028603"
       y2="-350.76373"
       gradientUnits="userSpaceOnUse"
       gradientTransform="matrix(0.42357423,0,0,0.42357423,-295.80831,-17.824806)" />
    <linearGradient
       inkscape:collect="always"
       xlink:href="#linearGradient935"
       id="linearGradient929"
       gradientUnits="userSpaceOnUse"
       x1="38.123863"
       y1="-84.518074"
       x2="71.749847"
       y2="-83.43483"
       gradientTransform="matrix(0.41803401,0,0,0.42424576,-351.52509,-5.9749175)" />
    <linearGradient
       inkscape:collect="always"
       xlink:href="#linearGradient935"
       id="linearGradient939"
       gradientUnits="userSpaceOnUse"
       gradientTransform="matrix(0.42252494,0,0,0.42424576,-384.0715,-20.578812)"
       x1="38.123863"
       y1="-84.518074"
       x2="71.749847"
       y2="-83.43483" />
    <linearGradient
       inkscape:collect="always"
       xlink:href="#linearGradient953"
       id="linearGradient955"
       x1="-51.219757"
       y1="-391.34869"
       x2="-105.01648"
       y2="-389.83679"
       gradientUnits="userSpaceOnUse"
       gradientTransform="matrix(0.42357423,0,0,0.42357423,-295.80831,-17.824806)" />
    <linearGradient
       inkscape:collect="always"
       xlink:href="#linearGradient961"
       id="linearGradient963"
       x1="-147.58453"
       y1="-365.60031"
       x2="-227.45667"
       y2="-319.48611"
       gradientUnits="userSpaceOnUse"
       gradientTransform="matrix(0.42357423,0,0,0.42357423,-295.80831,-17.824806)" />
  </defs>
  <sodipodi:namedview
     id="base"
     pagecolor="#ffffff"
     bordercolor="#666666"
     borderopacity="1.0"
     inkscape:pageopacity="0.0"
     inkscape:pageshadow="2"
     inkscape:zoom="0.0875"
     inkscape:cx="2794.7355"
     inkscape:cy="-391.26415"
     inkscape:document-units="mm"
     inkscape:current-layer="layer1"
     showgrid="false"
     showguides="false"
     fit-margin-top="0"
     fit-margin-left="0"
     fit-margin-right="0"
     fit-margin-bottom="0"
     inkscape:window-width="1366"
     inkscape:window-height="745"
     inkscape:window-x="-8"
     inkscape:window-y="-8"
     inkscape:window-maximized="1" />
  <metadata
     id="metadata5">
    <rdf:RDF>
      <cc:Work
         rdf:about="">
        <dc:format>image/svg+xml</dc:format>
        <dc:type
           rdf:resource="http://purl.org/dc/dcmitype/StillImage" />
        <dc:title></dc:title>
      </cc:Work>
    </rdf:RDF>
  </metadata>
  <g
     inkscape:label="Layer 1"
     inkscape:groupmode="layer"
     id="layer1"
     transform="translate(513.17676,204.23759)">
    <g
       id="g975">
      <path
         sodipodi:nodetypes="cscccscsccsccccssccsccsccccccccsccccsccscccccscccscccccscccscscccscccscccccccscccsccccc"
         inkscape:connector-curvature="0"
         d="m -258.45835,-143.08982 c 0.23686,-0.91015 1.20287,-4.65962 2.1467,-8.33216 l 1.71605,-6.67734 1.00848,-0.79947 c 0.55467,-0.4397 0.99294,-0.81501 0.97393,-0.83402 -0.019,-0.019 -6.35693,0.38385 -14.08425,0.89525 l -14.04968,0.92981 -2.20643,1.39976 c -1.21353,0.76987 -2.26954,1.45837 -2.34667,1.53 -0.15256,0.14166 -2.49927,10.23979 -2.44516,10.52178 0.0272,0.1418 2.54013,0.42182 14.19941,1.58225 7.79148,0.77547 14.27674,1.41648 14.41165,1.42445 0.22035,0.013 0.28912,-0.15383 0.67597,-1.64031 z m -70.26516,111.918876 c -1.66918,-0.363003 -3.08034,-1.137259 -4.34042,-2.381406 -1.91345,-1.889273 -2.85071,-4.098962 -2.98002,-7.025729 -0.1025,-2.320102 0.37781,-4.470868 1.48338,-6.642363 l 0.54533,-1.071093 -0.40131,-0.236773 c -0.22071,-0.130228 -0.45366,-0.236774 -0.51766,-0.236774 -0.18644,0 -1.34147,2.519928 -1.65604,3.612965 -0.94255,3.275174 -0.61892,6.730124 0.87986,9.393339 0.78429,1.393614 1.7835,2.438449 3.41938,3.575517 0.23506,0.16339 -1.10936,-0.536711 -2.5516,-1.328735 -2.19618,-1.206069 -3.57032,-2.745397 -4.62829,-5.184684 -0.81273,-1.87385 -0.96605,-2.659187 -0.9567,-4.900716 0.007,-1.753483 0.0421,-2.097815 0.31169,-3.080139 0.35553,-1.295845 0.95548,-2.764105 1.47333,-3.605743 0.20217,-0.328571 0.3515,-0.613446 0.33185,-0.633044 -0.10038,-0.100138 -8.71803,-5.40252 -8.73286,-5.373277 -0.01,0.01885 -0.1338,0.504596 -0.27606,1.079428 -0.31234,1.261972 -1.39936,3.502599 -2.23798,4.612991 -3.88992,5.150531 -10.32916,6.607736 -14.74168,3.336045 -4.49388,-3.331996 -5.24789,-10.279706 -1.70545,-15.714286 0.36723,-0.563384 1.16443,-1.536266 1.77157,-2.161949 l 1.10389,-1.137601 -0.42048,-0.259867 c -0.37603,-0.232399 -0.45193,-0.243022 -0.71822,-0.10051 -0.16378,0.08765 -0.6868,0.577746 -1.16227,1.089102 -3.50181,3.766033 -4.74354,9.065814 -3.18481,13.592959 0.67033,1.946916 2.15428,3.900369 3.74293,4.927172 0.3978,0.257105 0.69081,0.467461 0.65115,0.467461 -5.93949,-2.197014 -8.87711,-9.145251 -8.1122,-13.907713 0.51768,-2.824202 1.87504,-5.266798 3.93305,-7.323035 l 1.33684,-1.314859 -6.66894,-36.368589 c -3.66792,-20.00273 -6.63729,-36.40699 -6.59862,-36.4539 0.0588,-0.0713 11.67806,-0.46726 21.42979,-0.73028 1.40515,-0.0379 3.99189,-0.11759 5.74832,-0.1771 1.75644,-0.0595 5.1793,-0.16518 7.60637,-0.23483 18.31438,-0.52557 51.39732,-1.58971 51.46295,-1.65534 0.0444,-0.0444 0.68728,-2.86285 1.42872,-6.26332 l 1.34808,-6.18268 4.58299,-2.85899 4.583,-2.85899 21.54106,-1.39966 c 11.84758,-0.76981 21.54998,-1.39066 21.5609,-1.37967 0.0109,0.011 -0.0368,1.18036 -0.106,2.59861 l -0.12583,2.57863 -4.04547,2.69472 c -3.75805,2.50328 -4.05325,2.72434 -4.15507,3.11163 -0.0603,0.2293 -0.82339,3.52623 -1.69579,7.32651 -2.39328,10.42544 -19.15638,78.976413 -19.34028,79.090079 -0.19111,0.118101 -0.17171,0.133863 0.45923,0.372873 0.53629,0.203154 3.64404,1.839023 3.59031,1.889874 -0.0174,0.01648 -0.50197,-0.129063 -1.0768,-0.323425 -0.86702,-0.293155 -1.28718,-0.363143 -2.4653,-0.410663 -1.59301,-0.06425 -2.34154,0.04295 -3.92809,0.562582 -3.16654,1.037101 -5.96994,3.621361 -7.61273,7.017676 -1.85366,3.832309 -1.90752,7.929573 -0.149,11.334402 0.80399,1.556669 1.86005,2.7042 3.60168,3.913644 0.11995,0.08329 -0.0171,0.02516 -0.3045,-0.129169 -0.28742,-0.154334 -1.04515,-0.557005 -1.68385,-0.89483 -2.51058,-1.327889 -3.76723,-2.584667 -4.93338,-4.933827 -0.76619,-1.5435 -1.11282,-2.713209 -1.28129,-4.323829 -0.33056,-3.160151 0.82325,-6.85623 2.96257,-9.490227 0.60688,-0.747223 0.69209,-0.887286 0.50009,-0.822123 -0.0831,0.02821 -8.69528,2.646606 -19.13807,5.818634 -10.44278,3.172029 -19.01258,5.791268 -19.04398,5.82052 -0.0314,0.02927 0.0334,0.103839 0.14404,0.165749 0.37124,0.207755 1.26499,1.031878 1.84604,1.702214 0.70549,0.813889 1.74012,2.894795 2.03372,4.090316 0.16844,0.685877 0.21234,1.302838 0.20657,2.903195 -0.006,1.820289 -0.0394,2.151371 -0.31523,3.174608 -1.32531,4.917053 -5.25669,8.787408 -9.81981,9.667366 -1.04936,0.202363 -2.85619,0.198063 -3.8086,-0.0091 z"
         style="fill:#f7a71e;fill-opacity:1;stroke-width:0.11612771"
         id="path891" />
      <path
         inkscape:connector-curvature="0"
         style="fill:url(#linearGradient929);fill-opacity:1;stroke-width:0.11545717"
         d="m -327.95062,-30.999135 c -4.22955,-0.593622 -7.48849,-4.33622 -7.8275,-8.989221 -0.39886,-5.474297 2.5183,-10.735275 7.25225,-13.079122 1.8294,-0.905766 2.48872,-1.053144 4.70116,-1.0509 1.7092,0.0017 1.89601,0.02393 2.75061,0.32658 1.34103,0.474922 2.3989,1.155858 3.44961,2.220439 1.11899,1.13375 1.86298,2.369514 2.34709,3.898479 1.13732,3.592046 0.45146,7.768504 -1.84619,11.24205 -0.83778,1.266569 -2.58129,2.981341 -3.82376,3.760756 -2.13697,1.340541 -4.8112,1.978593 -7.00327,1.670939 z"
         id="path927" />
      <path
         id="path937"
         d="m -360.24377,-45.603029 c -4.27499,-0.593622 -7.56893,-4.33622 -7.91159,-8.989221 -0.40315,-5.474297 2.54535,-10.735275 7.33016,-13.079123 1.84906,-0.905767 2.51546,-1.053145 4.75167,-1.0509 1.72756,0.0017 1.91638,0.02393 2.78016,0.32658 1.35543,0.474924 2.42467,1.155858 3.48667,2.220439 1.13101,1.133752 1.88299,2.369513 2.3723,3.89848 1.14954,3.592046 0.45631,7.768504 -1.86602,11.24205 -0.84678,1.266569 -2.60902,2.98134 -3.86484,3.760756 -2.15993,1.340541 -4.86289,1.978593 -7.07851,1.670939 z"
         style="fill:url(#linearGradient939);fill-opacity:1;stroke-width:0.11607569"
         inkscape:connector-curvature="0" />
      <path
         id="path899"
         style="fill:url(#linearGradient907);fill-opacity:1;stroke-width:0.11612771"
         d="m -258.45835,-143.08982 c 0.23686,-0.91015 1.20287,-4.65962 2.1467,-8.33216 l 1.71605,-6.67734 1.00848,-0.79947 c 0.55467,-0.4397 0.99294,-0.81501 0.97393,-0.83402 -0.019,-0.019 -6.35693,0.38385 -14.08425,0.89525 l -14.04968,0.92981 -2.20643,1.39976 c -1.21353,0.76987 -2.26954,1.45837 -2.34667,1.53 -0.15256,0.14166 -2.49927,10.23979 -2.44516,10.52178 0.0272,0.1418 2.54013,0.42182 14.19941,1.58225 7.79148,0.77547 14.27674,1.41648 14.41165,1.42445 0.22035,0.013 0.28912,-0.15383 0.67597,-1.64031 z m -108.60496,73.985559 -6.66894,-36.368589 c -3.66792,-20.00273 -6.63729,-36.40699 -6.59862,-36.4539 0.0588,-0.0713 11.67806,-0.46726 21.42979,-0.73028 1.40515,-0.0379 3.99189,-0.11759 5.74832,-0.1771 1.75644,-0.0595 5.1793,-0.16518 7.60637,-0.23483 18.31438,-0.52557 51.39732,-1.58971 51.46295,-1.65534 0.0444,-0.0444 0.68728,-2.86285 1.42872,-6.26332 l 1.34808,-6.18268 4.58299,-2.85899 4.583,-2.85899 21.54106,-1.39966 c 11.84758,-0.76981 21.54998,-1.39066 21.5609,-1.37967 0.0109,0.011 -0.0368,1.18036 -0.106,2.59861 l -0.12583,2.57863 -4.04547,2.69472 c -3.75805,2.50328 -4.05325,2.72434 -4.15507,3.11163 -0.0603,0.2293 -0.82339,3.52623 -1.69579,7.32651 -2.39328,10.42544 -19.15638,78.976413 -19.34028,79.090079 -21.55463,6.779666 -32.87771,10.160127 -65.50811,19.975896 -15.86485,-9.911214 -30.98124,-18.265846 -33.04807,-20.812726 z"
         inkscape:connector-curvature="0"
         sodipodi:nodetypes="cscccscsccscccscccscccccscccscsccc" />
      <path
         inkscape:connector-curvature="0"
         id="path893"
         d="m -295.19513,-72.629326 c 0.29522,-2.29933 0.57428,-4.480894 0.62012,-4.847926 l 0.0834,-0.667341 -16.29819,-0.02944 -16.29819,-0.02944 19.76004,-26.651307 19.76004,-26.65131 -24.74061,-0.0293 c -13.60734,-0.0161 -24.76624,-0.004 -24.79756,0.0277 -0.0313,0.0313 -0.35224,2.09543 -0.71313,4.58691 l -0.65618,4.52996 16.23622,0.0294 16.23621,0.0294 -11.68815,15.44499 c -6.42848,8.49474 -13.44818,17.770444 -15.59933,20.612669 -10.73939,14.189517 -13.3198,17.605206 -13.40094,17.738764 -0.0707,0.116339 5.01639,0.139563 25.43559,0.116127 l 25.52394,-0.02927 z"
         style="fill:#ffffff;stroke-width:0.11612771" />
      <path
         inkscape:connector-curvature="0"
         id="path889"
         d="m -271.92141,-42.809412 c -4.2856,-0.592682 -7.58773,-4.329357 -7.93124,-8.974992 -0.40414,-5.465632 2.55168,-10.718283 7.34837,-13.058421 1.85364,-0.904331 2.5217,-1.051476 4.76346,-1.049235 1.73185,0.0017 1.92114,0.02389 2.78707,0.326063 1.3588,0.47417 2.43069,1.154028 3.49533,2.216924 1.13381,1.131955 1.88767,2.365764 2.37819,3.892308 1.15239,3.586361 0.45744,7.756208 -1.87066,11.224255 -0.84888,1.264564 -2.61549,2.976622 -3.87443,3.754804 -2.1653,1.338418 -4.87496,1.975461 -7.09609,1.668294 z"
         style="fill:url(#linearGradient915);fill-opacity:1;stroke-width:0.11612771" />
      <path
         sodipodi:nodetypes="ssccccsccccscsscsssccsccccccsscsssccccsccsssssssscccsccccccscccccccccssccscscscccccsssccccccccsssccssscccssssscccccsssssscsscccccccssscsscscccssscssccccccccscccccccccc"
         inkscape:connector-curvature="0"
         d="m -513.17676,-68.741385 c 0,-0.03096 0.16145,-1.291151 0.44863,-3.507715 2.29933,-17.747405 12.65831,-96.8064 12.73497,-97.14364 l 0.0594,-0.26129 h 6.10946 6.10945 l -0.071,0.5516 c -0.50043,3.88536 -11.69687,88.779861 -11.73947,89.011895 l -0.0586,0.319354 h 18.17109 18.17108 v 0.263132 c 0,0.144731 -0.31354,2.665316 -0.69677,5.601316 -0.38322,2.936001 -0.69676,5.352072 -0.69676,5.369062 0,0.01699 -10.92181,0.03088 -24.2707,0.03088 h -24.27069 z m 449.808482,-7.762205 c 4.175955,-0.908283 7.593326,-2.923785 10.758201,-6.344977 4.923724,-5.322485 7.425218,-12.625934 7.159472,-20.902993 -0.110553,-3.44316 -0.663788,-6.39061 -1.689265,-8.99989 -1.662902,-4.23117 -4.723657,-7.75606 -8.354019,-9.62085 -2.450237,-1.25861 -4.797643,-1.77843 -8.036326,-1.77961 -4.123359,-0.002 -7.202032,0.68523 -10.509562,2.34427 -2.077128,1.04188 -3.460093,2.03217 -5.252016,3.76077 -5.384492,5.19422 -7.941381,11.67871 -7.949171,20.159762 -0.0066,7.264616 1.99182,12.41566 6.492212,16.733474 2.721523,2.611131 5.916823,4.151751 9.963736,4.804064 1.627262,0.262286 5.911758,0.173318 7.416738,-0.15402 z m -11.512519,10.368542 c -10.666645,-1.292223 -18.988358,-8.891772 -22.258084,-20.326505 -1.557783,-5.44783 -1.885439,-12.515344 -0.874253,-18.857727 1.194314,-7.49102 4.446377,-14.07418 9.573523,-19.37971 5.159261,-5.33877 11.440973,-8.39911 18.870753,-9.1935 1.796565,-0.19209 5.70554,-0.16105 7.490237,0.0595 6.824572,0.84331 12.038441,3.73416 15.764352,8.74058 0.977991,1.31411 2.116334,3.22025 2.823415,4.72779 0.421481,0.89862 0.503155,1.00965 0.560291,0.76165 0.03681,-0.15968 0.408317,-2.85094 0.82561,-5.98058 0.417292,-3.12964 0.785035,-5.80784 0.817201,-5.95154 l 0.05848,-0.26129 h 5.455797 c 3.000681,0 5.455785,0.0214 5.455785,0.0477 0,0.0262 -1.855141,14.18716 -4.122534,31.46874 -2.267393,17.281595 -4.122534,31.5003 -4.122534,31.597137 0,0.154868 -0.670556,0.176051 -5.574131,0.176051 -5.393192,0 -5.57413,-0.0072 -5.57413,-0.220005 0,-0.120994 0.313542,-2.160233 0.696766,-4.531643 0.383221,-2.371397 0.696767,-4.340039 0.696767,-4.374759 0,-0.03473 -0.375058,0.397609 -0.83345,0.960713 -1.978943,2.430981 -3.645703,4.061717 -5.766997,5.642343 -3.723924,2.774776 -8.210846,4.474677 -13.074342,4.953324 -1.699529,0.167244 -5.276867,0.137018 -6.888525,-0.05823 z m -62.796973,-10.364446 c 1.7561,-0.395284 2.9514,-0.816223 4.52898,-1.59491 1.8694,-0.922739 3.31991,-1.953244 4.97552,-3.53482 4.59091,-4.385645 7.15341,-9.541822 8.16635,-16.432075 0.29355,-1.996901 0.29379,-7.215391 0,-9.168281 -0.5357,-3.56572 -1.68575,-6.73497 -3.34602,-9.22079 -3.73122,-5.58651 -9.03946,-8.12668 -16.04497,-7.67806 -3.3479,0.2144 -5.94971,0.86199 -8.61562,2.14444 -4.43712,2.13451 -8.22735,6.00497 -10.57637,10.80026 -1.84775,3.77204 -2.67288,7.3977 -2.80164,12.310656 -0.10077,3.84499 0.2662,6.676114 1.24631,9.614935 1.94241,5.824324 6.43369,10.426488 11.84138,12.133742 2.52585,0.797437 3.68427,0.946832 6.96766,0.89857 2.09962,-0.03088 2.81818,-0.08462 3.65803,-0.273667 z m -11.52477,10.371706 c -2.61411,-0.331231 -5.42356,-1.117927 -7.62591,-2.135415 -6.74388,-3.115685 -12.1731,-9.800449 -14.51366,-17.870046 -2.07099,-7.1402 -2.05024,-16.285721 0.0538,-23.730681 2.525,-8.93439 8.67621,-16.72079 16.41764,-20.78201 4.83202,-2.53491 10.31111,-3.6491 16.43805,-3.34272 6.30899,0.31548 11.42209,2.34594 15.30706,6.07857 2.07609,1.99466 3.57639,4.07071 5.02252,6.94989 0.44312,0.88223 0.81172,1.5877 0.81913,1.56772 0.007,-0.02 1.66795,-12.6565 3.69012,-28.08116 l 3.67668,-28.04484 5.54202,-0.0302 c 3.04811,-0.0166 5.542536,0.01 5.543176,0.0581 0.0021,0.15392 -14.058696,106.449262 -14.117206,106.722497 l -0.0559,0.261291 h -5.51386 c -3.24214,0 -5.51385,-0.04362 -5.51385,-0.105864 0,-0.05822 0.31589,-2.076501 0.70198,-4.485063 0.38609,-2.408557 0.68056,-4.400622 0.65436,-4.426808 -0.0262,-0.02622 -0.45756,0.463547 -0.95858,1.088311 -1.09099,1.360461 -3.35857,3.654505 -4.61603,4.669927 -3.68595,2.976456 -7.68806,4.720557 -12.69078,5.530583 -1.62887,0.263738 -6.52602,0.327711 -8.26073,0.107918 z m -62.13985,-10.380309 c 5.28511,-1.150677 9.79006,-4.429286 13.29576,-9.676401 2.1654,-3.241012 3.6659,-7.405653 4.30009,-11.934864 0.29018,-2.072438 0.29022,-7.185268 8e-5,-9.057958 -0.70893,-4.57564 -2.16196,-8.0042 -4.68017,-11.04324 -3.60363,-4.34894 -8.47961,-6.30698 -14.71199,-5.90787 -6.12194,0.39204 -10.82328,2.52796 -14.91513,6.77626 -3.80017,3.94548 -5.97369,8.49342 -6.94387,14.52963 -0.2524,1.57039 -0.35863,6.355753 -0.17958,8.089179 0.47594,4.607425 2.0313,8.562913 4.60478,11.710604 2.80691,3.4332 6.59985,5.710276 10.82076,6.496205 1.79388,0.334018 1.80522,0.334738 4.67477,0.29701 2.12981,-0.028 2.82023,-0.07949 3.7345,-0.278555 z m -11.10862,10.432087 c -8.04036,-0.924769 -14.30509,-4.828285 -18.84375,-11.741427 -4.27292,-6.508366 -6.06915,-15.373707 -5.0713,-25.029453 0.50207,-4.85824 1.64041,-8.909 3.64818,-12.98195 1.74816,-3.54632 3.77606,-6.38527 6.56096,-9.18499 6.44872,-6.48305 14.38942,-9.45457 23.98322,-8.97483 9.56328,0.47821 16.31464,4.85472 20.44942,13.25613 0.37569,0.76338 0.70691,1.31675 0.73604,1.22971 0.0291,-0.087 0.39635,-2.74498 0.81606,-5.90656 0.4197,-3.16157 0.79257,-5.89202 0.8286,-6.06767 l 0.0655,-0.31935 h 5.44878 c 4.13268,0 5.44877,0.0333 5.44877,0.13808 0,0.076 -1.85514,14.26242 -4.12253,31.52549 -2.26739,17.263072 -4.12253,31.441092 -4.12253,31.506717 0,0.08002 -1.83611,0.119321 -5.57413,0.119321 -4.21856,0 -5.57414,-0.03346 -5.57414,-0.137603 0,-0.07568 0.31611,-2.093744 0.70245,-4.484596 0.38635,-2.390835 0.68174,-4.36769 0.65644,-4.392994 -0.0253,-0.02529 -0.48213,0.490359 -1.01518,1.145925 -1.15563,1.421252 -3.30069,3.588173 -4.56197,4.60847 -3.99342,3.230419 -8.79133,5.171956 -14.06299,5.690771 -1.4353,0.141245 -5.17074,0.141732 -6.39589,0.0013 z m -201.77191,-10.418804 c 2.61438,-0.571439 5.16889,-1.682432 7.19659,-3.129921 1.24002,-0.885194 3.38185,-2.90167 4.47922,-4.217071 1.65344,-1.981955 3.30051,-4.788312 4.28709,-7.304563 2.1148,-5.39376 2.60888,-12.931761 1.22377,-18.670841 -0.90532,-3.75113 -2.59843,-6.88059 -5.10939,-9.44398 -3.30316,-3.37212 -7.08464,-4.88886 -12.19341,-4.89072 -4.11855,-0.002 -7.18467,0.68177 -10.50956,2.34199 -6.06188,3.02689 -10.65963,9.04907 -12.36843,16.20032 -1.28013,5.35728 -1.14673,11.54228 0.34707,16.091421 1.05389,3.209447 2.45867,5.487306 4.87022,7.897071 3.04335,3.041106 6.06498,4.571832 10.4059,5.271538 1.60212,0.258232 5.91366,0.173284 7.37093,-0.145244 z m -11.46671,10.36662 c -6.51493,-0.82345 -11.8587,-3.705208 -16.14683,-8.70756 -4.04962,-4.72411 -6.41294,-10.457137 -7.30036,-17.709477 -0.25794,-2.107951 -0.292,-8.052839 -0.0579,-10.103109 0.36943,-3.23536 1.00686,-6.22759 1.88842,-8.86473 2.81489,-8.42059 8.98863,-15.69202 16.46881,-19.39694 3.80203,-1.88315 7.63824,-2.85688 12.14217,-3.08202 4.21072,-0.21049 7.98865,0.25779 11.30629,1.40142 5.67064,1.95474 9.83747,5.7589 12.8207,11.70482 0.43113,0.85927 0.78752,1.53862 0.79199,1.50966 0.004,-0.029 0.38436,-2.82231 0.8442,-6.20744 l 0.83607,-6.15476 5.4979,-0.0302 5.4979,-0.0302 -0.0644,0.37856 c -0.0354,0.20821 -1.90851,14.44888 -4.16241,31.645946 l -4.09801,31.26739 h -5.58323 -5.58323 l 0.73001,-4.550928 c 0.40151,-2.503019 0.71811,-4.562742 0.70357,-4.57719 -0.0145,-0.01444 -0.42885,0.480761 -0.92069,1.100429 -0.49184,0.619668 -1.4586,1.703781 -2.14836,2.40915 -4.33618,4.434255 -9.17564,6.94699 -15.18944,7.886618 -1.75333,0.273942 -6.48055,0.337093 -8.27319,0.110519 z"
         style="fill:#054883;fill-opacity:1;stroke-width:0.11612771"
         id="path871" />
      <path
         inkscape:connector-curvature="0"
         id="path869"
         d="m -365.28263,-146.9071 c -1.45872,-0.15789 -3.25228,-1.25807 -6.62476,-4.06366 -3.78516,-3.14891 -8.96793,-9.18039 -10.51613,-12.23819 -0.98864,-1.95265 -1.03633,-3.20492 -0.18981,-4.98469 1.23755,-2.60186 5.95878,-7.51909 9.53506,-9.93091 2.69454,-1.81716 4.46339,-2.01283 6.76432,-0.74825 2.36465,1.2996 7.02089,5.41363 10.17092,8.98651 1.48809,1.68785 3.77985,4.69689 4.4982,5.90606 2.02313,3.40542 1.42948,5.39269 -3.09815,10.37116 -2.63201,2.89409 -6.24266,5.72605 -8.18722,6.42151 -0.94299,0.33725 -1.36399,0.38744 -2.35243,0.28046 z"
         style="fill:url(#linearGradient963);fill-opacity:1;stroke-width:0.11612771" />
      <path
         inkscape:connector-curvature="0"
         id="path867"
         d="m -306.77779,-149.44713 c -2.78408,-0.58241 -8.8989,-4.97978 -10.00628,-7.19586 -0.31362,-0.62759 -0.36909,-0.86611 -0.36909,-1.58696 0,-1.01117 0.16223,-1.54469 0.98429,-3.23708 1.68718,-3.47341 4.49451,-7.41096 7.20317,-10.10311 1.69702,-1.68668 2.82606,-2.14056 4.35811,-1.75199 2.15814,0.54735 6.05954,3.03533 8.47326,5.40351 1.7394,1.7066 2.13507,2.9612 1.51676,4.8095 -0.32776,0.97978 -1.54117,3.3559 -2.46939,4.8356 -2.35638,3.75635 -5.83159,7.7466 -7.41114,8.50947 -0.71956,0.34753 -1.56892,0.4656 -2.27969,0.31692 z"
         style="fill:url(#linearGradient923);fill-opacity:1;stroke-width:0.11612771" />
      <path
         inkscape:connector-curvature="0"
         id="path828"
         d="m -336.14004,-161.7195 c -3.58185,-0.30252 -6.43937,-0.75038 -8.09048,-1.26801 -3.59912,-1.12631 -3.85768,-2.95527 -4.71547,-5.63593 -0.42306,-1.3437 -0.86548,-3.03597 -1.25933,-5.11436 -0.65708,-3.90773 -0.6875,-7.35888 -0.49874,-11.3059 0.24052,-5.02929 1.08139,-10.76056 1.95641,-13.3348 1.48538,-4.36981 4.31156,-5.65015 12.89793,-5.84308 6.48458,-0.14571 12.33176,0.71272 14.82419,2.17637 0.91552,0.53762 1.99816,1.64035 2.44467,2.49002 1.05751,2.01234 1.61554,5.35508 1.91282,11.45812 0.33563,6.89052 -0.52673,15.92682 -1.9442,20.37241 -1.30383,4.08915 -3.63079,5.4662 -10.08346,5.96718 -1.36903,0.10628 -6.3356,0.13163 -7.44434,0.038 z"
         style="fill:url(#linearGradient955);fill-opacity:1;stroke-width:0.11612771" />
    </g>
  </g>
</svg>
